<svg 
 xmlns="http://www.w3.org/2000/svg"
 xmlns:xlink="http://www.w3.org/1999/xlink"
 width="102px" height="102px">
<path fill-rule="evenodd"  fill="rgb(228, 70, 72)"
 d="M51.000,101.094 C23.127,101.094 0.531,78.477 0.531,50.578 C0.531,22.679 23.127,0.063 51.000,0.063 C78.873,0.063 101.469,22.679 101.469,50.578 C101.469,78.477 78.873,101.094 51.000,101.094 ZM51.000,6.000 C26.147,6.000 6.000,26.147 6.000,51.000 C6.000,75.853 26.147,96.000 51.000,96.000 C75.853,96.000 96.000,75.853 96.000,51.000 C96.000,26.147 75.853,6.000 51.000,6.000 ZM51.000,82.156 C33.586,82.156 19.469,68.018 19.469,50.578 C19.469,33.138 33.586,19.000 51.000,19.000 C68.414,19.000 82.531,33.138 82.531,50.578 C82.531,68.018 68.414,82.156 51.000,82.156 Z"/>
</svg>